<?xml version="1.0" encoding="utf-8"?>
<!-- Generator: Adobe Illustrator 25.0.0, SVG Export Plug-In . SVG Version: 6.00 Build 0)  -->
<svg version="1.1" id="Camada_1" xmlns="http://www.w3.org/2000/svg" xmlns:xlink="http://www.w3.org/1999/xlink" x="0px" y="0px"
	 viewBox="0 0 50 33" style="enable-background:new 0 0 50 33;" xml:space="preserve">
<style type="text/css">
	.st0{fill:#00B70D;}
	.st1{fill:#939393;}
	.st2{enable-background:new    ;}
</style>
<g>
	<polygon class="st0" points="2.41,32.07 1.48,31.15 1.48,12.95 2.41,12.02 47.7,12.02 48.63,12.95 48.63,31.15 47.7,32.07 	"/>
	<path d="M47.7,12.95v18.2H2.41v-18.2L47.7,12.95 M47.7,11.1H2.41l-1.85,1.85v18.2L2.41,33h45.3l1.85-1.85v-18.2L47.7,11.1
		L47.7,11.1z"/>
</g>
<g>
	<polygon class="st1" points="23.84,3.44 23.51,3.11 23.51,0.65 23.84,0.32 26.31,0.32 26.63,0.65 26.63,3.11 26.31,3.44 	"/>
	<path d="M26.31,0.65v2.46h-2.47V0.65H26.31 M26.31,0h-2.47l-0.65,0.65v2.46l0.65,0.65h2.47l0.65-0.65V0.65L26.31,0L26.31,0z"/>
</g>
<rect x="13.94" y="6.89" transform="matrix(0.7071 -0.7071 0.7071 0.7071 0.6789 16.0715)" width="11.59" height="0.65"/>
<rect x="30.25" y="1.34" transform="matrix(0.7071 -0.7071 0.7071 0.7071 3.7418 23.7754)" width="0.65" height="12.06"/>
<g class="st2">
	<path d="M7.99,23.1h-2.8v6.38H3.48V14.24h6.12v15.25H7.99V23.1z M5.19,16.85v3.77h2.8v-3.77H5.19z"/>
	<path d="M16.95,14.24v5.78l-0.75,1.9l0.75,1.91v5.66h-6.12V14.24H16.95z M12.55,16.85v3.77h2.8v-3.77H12.55z M12.55,23.1v3.77h2.8
		V23.1H12.55z"/>
	<path d="M19.9,16.85v3.77h4.4v2.48h-4.4v3.77h4.4v2.61h-6.12V14.24h6.12v2.61H19.9z"/>
	<path d="M25.55,29.48V14.24h6.12v8.87h-2.09l2.09,6.38h-1.61l-2.2-6.38h-0.6v6.38H25.55z M27.26,16.85v3.77h2.8v-3.77H27.26z"/>
	<path d="M35.22,16.85h-2.31v-2.61h6.12v2.61h-2.09v12.63h-1.71V16.85z"/>
	<path d="M46.38,14.24v15.25h-6.12V14.24H46.38z M44.78,16.85h-2.8v10.02h2.8V16.85z"/>
</g>
</svg>
