<?xml version="1.0" encoding="utf-8"?>
<!-- Generator: Adobe Illustrator 25.0.0, SVG Export Plug-In . SVG Version: 6.00 Build 0)  -->
<svg version="1.1" id="Camada_1" xmlns="http://www.w3.org/2000/svg" xmlns:xlink="http://www.w3.org/1999/xlink" x="0px" y="0px"
	 viewBox="0 0 50 33" style="enable-background:new 0 0 50 33;" xml:space="preserve">
<style type="text/css">
	.st0{fill:#DD1000;}
	.st1{fill:#939393;}
</style>
<g>
	<polygon class="st0" points="2.41,32.07 1.48,31.15 1.48,12.95 2.41,12.02 47.7,12.02 48.63,12.95 48.63,31.15 47.7,32.07 	"/>
	<path d="M47.7,12.95v18.2H2.41v-18.2H47.7 M47.7,11.1H2.41l-1.85,1.85v18.2L2.41,33h45.3l1.85-1.85v-18.2L47.7,11.1L47.7,11.1z"/>
</g>
<g>
	<polygon class="st1" points="23.84,3.44 23.51,3.11 23.51,0.65 23.84,0.32 26.31,0.32 26.63,0.65 26.63,3.11 26.31,3.44 	"/>
	<path d="M26.31,0.65v2.46h-2.47V0.65H26.31 M26.31,0h-2.47l-0.65,0.65v2.46l0.65,0.65h2.47l0.65-0.65V0.65L26.31,0L26.31,0z"/>
</g>
<rect x="13.94" y="6.89" transform="matrix(0.7071 -0.7071 0.7071 0.7071 0.6832 16.0691)" width="11.59" height="0.65"/>
<rect x="30.25" y="1.34" transform="matrix(0.7071 -0.7071 0.7071 0.7071 3.7395 23.7792)" width="0.65" height="12.06"/>
<g>
	<path d="M4.86,29.48H3.39V14.24h5.24v2.61H4.86v3.77h3.78v2.48H4.86V29.48z"/>
	<path d="M11.16,16.85v3.77h3.78v2.48h-3.78v3.77h3.78v2.61H9.69V14.24h5.24v2.61H11.16z"/>
	<path d="M17.47,26.87h3.78v2.61H16V14.24h5.24v2.61h-3.78V26.87z"/>
	<path d="M23.77,29.48h-1.47V14.24h1.47v6.38h2.4v-6.38h1.38v15.25h-1.38V23.1h-2.4V29.48z"/>
	<path d="M32.48,23.1h-2.4v6.38h-1.47V14.24h5.24v15.25h-1.38V23.1z M30.08,16.85v3.77h2.4v-3.77H30.08z"/>
	<path d="M34.92,29.48V14.24h4.69l0.55,1.34v12.57l-0.55,1.34H34.92z M38.79,16.85h-2.4v10.02h2.4V16.85z"/>
	<path d="M46.47,14.24v15.25h-5.24V14.24H46.47z M45.09,16.85h-2.4v10.02h2.4V16.85z"/>
</g>
</svg>
